<?xml version="1.0" encoding="UTF-8"?>
<svg version="1.1" xmlns="http://www.w3.org/2000/svg" width="2000" height="1125">
<path d="M0 0 C660 0 1320 0 2000 0 C2000 371.25 2000 742.5 2000 1125 C1340 1125 680 1125 0 1125 C0 753.75 0 382.5 0 0 Z " fill="#FEFEFE" transform="translate(0,0)"/>
<path d="M0 0 C91.25552209 0 91.25552209 0 105.5 7.8125 C106.48613281 8.33070313 106.48613281 8.33070313 107.4921875 8.859375 C112.78111716 11.71288843 117.542413 14.95415798 122 19 C122.68320313 19.60328125 123.36640625 20.2065625 124.0703125 20.828125 C136.82246349 32.75599247 145.31957743 50.71832362 146.28125 68.140625 C146.91454127 87.71969611 140.61640526 106.38801256 127.625 121.1875 C126.09920113 122.80676669 124.55837992 124.4120646 123 126 C122.39671875 126.62777344 121.7934375 127.25554687 121.171875 127.90234375 C105.71459891 142.72116713 84.29764808 146.70794416 63.68945312 146.43945312 C61.73045643 146.39770965 59.77147203 146.35538539 57.8125 146.3125 C55.77932492 146.28733493 53.74611914 146.26453655 51.71289062 146.24414062 C46.80717702 146.19422494 41.90587943 146.09627762 37 146 C37 157.88 37 169.76 37 182 C24.79 182 12.58 182 0 182 C0 121.94 0 61.88 0 0 Z " fill="#030303" transform="translate(1215,462)"/>
<path d="M0 0 C14.23280018 11.57274483 23.0394298 26.71122111 26.3984375 44.77197266 C26.83246782 49.17771428 26.92326265 53.53423037 26.8984375 57.95947266 C26.89344238 59.13767578 26.88844727 60.31587891 26.88330078 61.52978516 C26.50178294 80.74775987 19.60566665 96.71064824 6.3984375 110.77197266 C-9.83254979 126.24746355 -27.55425422 130.41003267 -49.30078125 130.10791016 C-66.535733 129.48899662 -81.92364761 120.12976615 -93.6015625 107.77197266 C-107.97066013 90.51893642 -113.18581806 70.75271298 -111.43164062 48.62890625 C-109.51931105 31.01601244 -100.26996995 14.31147335 -87.1015625 2.58447266 C-62.17212361 -17.13301805 -25.94226066 -19.89170292 0 0 Z " fill="#010101" transform="translate(1543.6015625,516.22802734375)"/>
<path d="M0 0 C14.23280018 11.57274483 23.0394298 26.71122111 26.3984375 44.77197266 C26.83246782 49.17771428 26.92326265 53.53423037 26.8984375 57.95947266 C26.89344238 59.13767578 26.88844727 60.31587891 26.88330078 61.52978516 C26.47703804 81.99421994 18.55696541 98.86080134 3.90234375 113.21728516 C-3.2090655 119.45165582 -10.96170095 123.17036755 -19.6015625 126.77197266 C-20.44976563 127.14451172 -21.29796875 127.51705078 -22.171875 127.90087891 C-35.40352714 132.64470274 -54.41045892 131.56118672 -67.31640625 126.38134766 C-86.10847417 117.17524542 -100.80212572 103.52372417 -107.7578125 83.43212891 C-113.65716474 64.70168554 -113.77731188 44.32988283 -104.9140625 26.45947266 C-95.11739482 7.82694705 -81.11070675 -4.75568823 -61.1015625 -11.38818359 C-40.40614388 -16.53808522 -17.16188303 -13.15918775 0 0 Z " fill="#010101" transform="translate(1165.6015625,516.22802734375)"/>
<path d="M0 0 C1.83019032 1.5900296 3.39229109 3.17792991 5 5 C7.85760908 3.69543934 9.96323951 2.26745037 12.25 0.125 C22.1432344 -8.46869938 34.24227885 -9.84116843 47 -9 C50.10716338 -8.59647229 53.00673468 -7.9197778 56 -7 C56.77730469 -6.76667969 57.55460938 -6.53335937 58.35546875 -6.29296875 C71.32363663 -1.77781968 80.98966443 7.44436 87.3046875 19.48828125 C88.29595042 21.64084123 89.18964334 23.77352503 90 26 C90.34159149 26.83701447 90.68318298 27.67402893 91.03512573 28.53640747 C92.27021023 32.96996902 92.26423186 37.00694284 92.22705078 41.58544922 C92.22734283 42.53242172 92.22763489 43.47939423 92.22793579 44.45506287 C92.22654725 47.57169901 92.21100832 50.68809333 92.1953125 53.8046875 C92.19158068 55.97087473 92.18873451 58.13706365 92.18673706 60.30325317 C92.1791139 65.9947173 92.15947666 71.68607877 92.1373291 77.37750244 C92.11684233 83.18915417 92.10772928 89.00082254 92.09765625 94.8125 C92.07622957 106.20838561 92.04105809 117.60416819 92 129 C80.78 129 69.56 129 58 129 C57.99589111 126.28523437 57.99178223 123.57046875 57.98754883 120.7734375 C57.97032645 111.78871143 57.92578306 102.80426897 57.86790943 93.81971741 C57.83366615 88.37405932 57.80853354 82.92868099 57.80444336 77.48291016 C57.80015478 72.22419102 57.77164506 66.96610269 57.72656822 61.70758057 C57.7136112 59.70464761 57.70927915 57.70163909 57.71384621 55.69866943 C57.71876493 52.88566566 57.69260364 50.07449654 57.65942383 47.26171875 C57.66804947 46.43956375 57.67667511 45.61740875 57.68556213 44.77033997 C57.56717704 38.75574542 55.80689175 34.66837503 52 30 C47.35740299 26.37650965 42.47343094 26.64483535 36.8046875 26.6015625 C33.6591026 27.04842832 32.39170879 27.99096461 30 30 C29.34 30 28.68 30 28 30 C27.31379969 31.32338632 26.65213539 32.65949948 26 34 C25.65337311 34.69059006 25.30674622 35.38118011 24.94961548 36.09269714 C23.65848494 40.04556815 23.69199481 43.69556085 23.68115234 47.8293457 C23.67110672 48.70789719 23.6610611 49.58644867 23.65071106 50.49162292 C23.61989877 53.38633591 23.6028493 56.28095648 23.5859375 59.17578125 C23.56722429 61.18646539 23.54765076 63.1971417 23.5272522 65.20780945 C23.47594124 70.4931272 23.43630988 75.77847042 23.39910889 81.06390381 C23.35906282 86.45998426 23.3079732 91.8559589 23.2578125 97.25195312 C23.16106536 107.83456845 23.07767752 118.4172275 23 129 C11.78 129 0.56 129 -11 129 C-11.0093457 126.31552734 -11.01869141 123.63105469 -11.02832031 120.86523438 C-11.06213813 111.98030712 -11.11771391 103.09561095 -11.18390274 94.21086884 C-11.22335544 88.82578846 -11.25555486 83.44087107 -11.27099609 78.05566406 C-11.28617704 72.85535957 -11.32064857 67.65550323 -11.36830902 62.45539856 C-11.38310791 60.47479657 -11.39104016 58.4941306 -11.39188385 56.51347351 C-11.39425973 53.73180771 -11.42138928 50.95137417 -11.45410156 48.16992188 C-11.4490712 47.35711761 -11.44404083 46.54431335 -11.43885803 45.70687866 C-11.54057547 40.09000002 -12.79163139 35.66898629 -16 31 C-21.10574397 26.74521336 -25.62236851 26.36256653 -32.19140625 26.625 C-36.15510913 27.15422876 -38.16849209 28.16849209 -41 31 C-44.69381232 36.61405156 -45.58685809 41.55167912 -45.54589844 48.16992188 C-45.55623611 49.04891144 -45.56657379 49.927901 -45.57722473 50.83352661 C-45.60650452 53.7121247 -45.60814875 56.59001513 -45.609375 59.46875 C-45.62436666 61.47515187 -45.64109587 63.48154143 -45.65948486 65.48791504 C-45.70305975 70.74858182 -45.72313565 76.00908213 -45.73822021 81.26989746 C-45.75782684 86.64617719 -45.79979287 92.02227808 -45.83984375 97.3984375 C-45.91503929 107.93226665 -45.96332689 118.46596622 -46 129 C-57.22 129 -68.44 129 -80 129 C-80 84.12 -80 39.24 -80 -7 C-72 -7 -72 -7 -69.72265625 -5.5390625 C-69.17480469 -4.90742188 -68.62695312 -4.27578125 -68.0625 -3.625 C-67.49660156 -2.99851562 -66.93070313 -2.37203125 -66.34765625 -1.7265625 C-65 0 -65 0 -64 2 C-60.58788917 1.361203 -58.26514169 0.0172426 -55.375 -1.875 C-38.54505767 -12.22615922 -15.94872236 -11.85778614 0 0 Z " fill="#000000" transform="translate(944,515)"/>
<path d="M0 0 C6.35360458 5.02629746 11.90498556 10.71430284 17 17 C14.21932449 21.33629817 11.18534286 25.29062789 7.8125 29.1875 C6.82868068 30.33660096 5.84561829 31.48635037 4.86328125 32.63671875 C4.1355249 33.4882251 4.1355249 33.4882251 3.39306641 34.35693359 C1.396426 36.71189152 -0.55298338 39.1039417 -2.5 41.5 C-5.74013157 45.48386284 -9.04107136 49.40750882 -12.375 53.3125 C-16.1579231 57.7485139 -19.80537927 62.26596685 -23.375 66.875 C-28.37680395 73.32598408 -33.67072281 79.49143345 -39.0546875 85.625 C-41.7584158 88.70586918 -44.38920829 91.84007498 -47 95 C-45.34601379 96.65398621 -43.46544656 96.25058157 -41.1875 96.3125 C-31.45227129 96.19871161 -21.91072668 93.04894121 -15 86 C-12.79586518 83.11002924 -10.83848899 80.13378805 -9 77 C-3.25487231 81.8030503 2.15878868 86.87794464 7.5 92.125 C8.75296875 93.32189453 8.75296875 93.32189453 10.03125 94.54296875 C10.815 95.31511719 11.59875 96.08726562 12.40625 96.8828125 C13.12103516 97.57777832 13.83582031 98.27274414 14.57226562 98.98876953 C16 101 16 101 15.83178711 103.11157227 C10.14076809 116.03203957 -5.84259454 123.84364955 -18.25 128.75 C-34.16827128 134.05609043 -54.64726265 132.69901137 -69.59887695 125.38574219 C-87.63975967 116.09949894 -99.25528078 102.33302522 -105.99609375 83.16796875 C-112.33928627 62.92438307 -109.95250432 41.49163979 -100.41381836 22.73730469 C-91.05591292 5.65356338 -74.64886097 -5.44106608 -56.25 -10.9375 C-36.97316235 -15.04610213 -16.27087387 -11.18884 0 0 Z " fill="#010101" transform="translate(722,515)"/>
<path d="M0 0 C11.55 0 23.1 0 35 0 C35.33 19.47 35.66 38.94 36 59 C39.96 57.02 43.92 55.04 48 53 C52.23198502 51.58933833 56.25467182 51.8157006 60.6875 51.8125 C61.56083984 51.80025391 62.43417969 51.78800781 63.33398438 51.77539062 C79.22489102 51.7397874 92.77722195 58.66057244 104.40625 69.17578125 C109.05858764 73.91574854 112.36762053 79.00408135 115.375 84.875 C115.69686279 85.49826172 116.01872559 86.12152344 116.3503418 86.76367188 C122.29869122 99.11031199 122.41068706 111.37504891 122.29296875 124.765625 C122.28736229 126.6541917 122.28309717 128.5427628 122.28010559 130.43133545 C122.26873939 135.36326486 122.23934453 140.29492241 122.20599365 145.22674561 C122.17511388 150.27482426 122.16156226 155.32294754 122.14648438 160.37109375 C122.11446564 170.24753351 122.06176646 180.12370145 122 190 C110.45 190 98.9 190 87 190 C86.99589111 187.50775879 86.99178223 185.01551758 86.98754883 182.44775391 C86.97030121 174.18547102 86.925716 165.92349536 86.86790943 157.66140175 C86.83371369 152.65522981 86.808541 147.64936064 86.80444336 142.64306641 C86.80014449 137.80576612 86.77155052 132.96914798 86.72656822 128.132061 C86.71364385 126.29266722 86.70926748 124.45319158 86.71384621 122.61375809 C86.98468921 108.48140042 86.98468921 108.48140042 81 96 C78.48121992 93.67609656 75.95290428 91.73769317 73 90 C72.41605469 89.62875 71.83210937 89.2575 71.23046875 88.875 C64.97387632 86.42057495 56.24646752 86.91094266 49.9375 89.02734375 C43.05383342 92.81545905 38.48001387 98.5599584 36 106 C35.88003546 108.69147956 35.81468151 111.3590364 35.79467773 114.05151367 C35.78477814 114.87125168 35.77487854 115.69098969 35.76467896 116.53556824 C35.73307991 119.24633898 35.7083128 121.95712725 35.68359375 124.66796875 C35.66302285 126.54698646 35.64202634 128.42599955 35.62062073 130.30500793 C35.56541414 135.2517015 35.5159986 140.19843674 35.46777344 145.14520264 C35.41754813 150.19254262 35.36186743 155.23982207 35.30664062 160.28710938 C35.1990763 170.19135647 35.09813155 180.09565495 35 190 C23.45 190 11.9 190 0 190 C0 127.3 0 64.6 0 0 Z " fill="#020202" transform="translate(474,454)"/>
<path d="M0 0 C48.18 0 96.36 0 146 0 C146 12.21 146 24.42 146 37 C127.85 37 109.7 37 91 37 C91 84.85 91 132.7 91 182 C79.12 182 67.24 182 55 182 C55 134.15 55 86.3 55 37 C36.85 37 18.7 37 0 37 C0 24.79 0 12.58 0 0 Z " fill="#020202" transform="translate(313,462)"/>
<path d="M0 0 C11.55 0 23.1 0 35 0 C35 17.82 35 35.64 35 54 C52.16 54 69.32 54 87 54 C87 65.55 87 77.1 87 89 C69.84 89 52.68 89 35 89 C35.061875 96.734375 35.12375 104.46875 35.1875 112.4375 C35.19418701 114.86150146 35.20087402 117.28550293 35.20776367 119.78295898 C35.23423601 121.72903111 35.26251903 123.6750798 35.29296875 125.62109375 C35.28898071 126.6114563 35.28499268 127.60181885 35.28088379 128.62219238 C35.45399346 137.17678364 38.07796946 143.38964894 44.25 149.375 C52.61147243 155.82692435 62.41198978 155.51725044 72.5625 155.6875 C77.326875 155.790625 82.09125 155.89375 87 156 C87 167.22 87 178.44 87 190 C82.11009739 190.09269958 77.22333898 190.17206025 72.33325195 190.21972656 C70.67591934 190.23963061 69.01865494 190.26676414 67.36157227 190.30175781 C48.0781391 190.69827231 31.50138381 186.06342031 17.21484375 172.37890625 C5.24818902 159.52583265 -0.55872921 143.62890449 -0.29296875 126.20703125 C-0.28872391 125.13498947 -0.28447906 124.06294769 -0.28010559 122.9584198 C-0.26347989 119.57617739 -0.22585846 116.19455851 -0.1875 112.8125 C-0.17243233 110.50196181 -0.1587476 108.19141416 -0.14648438 105.88085938 C-0.11362928 100.25367057 -0.06196021 94.62694053 0 89 C-5.61 89 -11.22 89 -17 89 C-17 77.45 -17 65.9 -17 54 C-11.39 54 -5.78 54 0 54 C0 36.18 0 18.36 0 0 Z " fill="#030303" transform="translate(1596,454)"/>
<path d="M0 0 C11.55 0 23.1 0 35 0 C35 62.7 35 125.4 35 190 C23.45 190 11.9 190 0 190 C0 127.3 0 64.6 0 0 Z " fill="#020202" transform="translate(1378,454)"/>
<path d="M0 0 C9 0 9 0 12.06640625 2.9921875 C12.92990339 4.26568099 13.7616326 5.56121752 14.5625 6.875 C15.21702148 7.85146484 15.21702148 7.85146484 15.88476562 8.84765625 C19 13.59141974 19 13.59141974 19 16 C19.90621094 15.39671875 20.81242188 14.7934375 21.74609375 14.171875 C39.01579233 2.78552177 53.77305448 -0.50343033 74.3125 -0.1875 C76.03579549 -0.17241326 77.75910387 -0.15873197 79.48242188 -0.14648438 C83.65553767 -0.11640425 87.82681591 -0.05763477 92 0 C92 11.55 92 23.1 92 35 C89.44507813 35.01417969 86.89015625 35.02835938 84.2578125 35.04296875 C81.75214935 35.07368228 79.24674367 35.11274643 76.74121094 35.15258789 C75.01506823 35.17562246 73.28878787 35.1901291 71.5625 35.19555664 C56.15053088 35.15994252 56.15053088 35.15994252 43.11181641 42.75463867 C37.4158845 48.71176128 35.5517485 55.12837138 35.56762695 63.23022461 C35.5574353 64.02128601 35.54724365 64.81234741 35.53674316 65.62738037 C35.506762 68.21910827 35.49737024 70.81046567 35.48828125 73.40234375 C35.47142349 75.20839146 35.45327178 77.01442751 35.43388367 78.82044983 C35.38649657 83.55665444 35.35661429 88.29281178 35.33044434 93.0291748 C35.2953244 98.72123213 35.23834388 104.413108 35.18505096 110.10501862 C35.10666947 118.73665569 35.05596386 127.36805739 35 136 C23.45 136 11.9 136 0 136 C0 91.12 0 46.24 0 0 Z " fill="#030303" transform="translate(756,508)"/>
<path d="M0 0 C7.0125 -0.103125 14.025 -0.20625 21.25 -0.3125 C23.43786133 -0.35802002 25.62572266 -0.40354004 27.87988281 -0.45043945 C41.23078161 -0.61267618 52.09166061 0.30107063 62.25 9.97265625 C70.63114193 19.68205952 72.99559167 29.36802753 72.23388672 41.88330078 C71.20562781 51.18915123 65.9467344 59.01321453 59 65 C47.21046936 73.44757426 35.62269806 72.83898594 21.625 72.4375 C14.48875 72.293125 7.3525 72.14875 0 72 C0 48.24 0 24.48 0 0 Z " fill="#FEFEFE" transform="translate(1252,499)"/>
<path d="M0 0 C9.33664101 6.44756719 13.57111854 14.65989363 15.8203125 25.6796875 C17.24840809 36.85086516 14.39698278 46.82157697 8.0703125 56.1171875 C2.29684626 63.13416955 -6.14334279 67.96485721 -15.1484375 69.03125 C-24.86743185 69.47091879 -33.29832999 66.96254164 -41.0546875 60.9921875 C-49.38354488 53.06961585 -53.26475095 42.54855036 -53.6171875 31.3046875 C-53.35033016 19.71379677 -49.46098943 11.33138562 -41.58984375 2.99609375 C-29.83255331 -8.09725558 -13.40017635 -8.1169527 0 0 Z " fill="#FCFCFC" transform="translate(1142.1796875,543.3203125)"/>
<path d="M0 0 C9.2482029 5.60497145 14.25183508 12.99803007 17.03125 23.390625 C19.33848527 35.17109683 17.24441051 44.76116391 11.34375 55.1640625 C6.43401735 62.37780377 -1.71660316 67.98716389 -10.3046875 69.78125 C-21.06453038 71.05544192 -30.52643363 68.7544783 -39.1796875 62.09375 C-47.50854488 54.17117835 -51.38975095 43.65011286 -51.7421875 32.40625 C-51.47533016 20.81535927 -47.58598943 12.43294812 -39.71484375 4.09765625 C-28.61234224 -6.37788047 -13.12901447 -6.94280087 0 0 Z " fill="#FCFCFC" transform="translate(1518.3046875,542.21875)"/>
<path d="M0 0 C1.1446875 -0.00257813 2.289375 -0.00515625 3.46875 -0.0078125 C6.5 0.125 6.5 0.125 9.5 1.125 C8.17152382 4.84481553 6.5374074 7.66840564 4.12109375 10.78515625 C3.45166748 11.6551123 2.78224121 12.52506836 2.0925293 13.42138672 C1.02578979 14.79061279 1.02578979 14.79061279 -0.0625 16.1875 C-1.52631067 18.08703231 -2.98985437 19.98677039 -4.453125 21.88671875 C-5.15630859 22.79599121 -5.85949219 23.70526367 -6.58398438 24.64208984 C-8.84974113 27.57821958 -11.08793148 30.5325555 -13.3125 33.5 C-13.98023438 34.38945313 -14.64796875 35.27890625 -15.3359375 36.1953125 C-17.04693514 38.51164504 -18.73583959 40.83972188 -20.4140625 43.1796875 C-21.16659302 44.22310303 -21.16659302 44.22310303 -21.93432617 45.28759766 C-22.91940763 46.65554414 -23.89895757 48.02749488 -24.87231445 49.40380859 C-26.0331094 51.01359624 -27.26096998 52.57462398 -28.5 54.125 C-29.16 54.125 -29.82 54.125 -30.5 54.125 C-34.63078484 43.89638992 -35.44452262 32.17370088 -31.5625 21.75 C-26.73798362 11.78927096 -19.79459565 5.12019506 -9.5 1.125 C-6.13849548 0.00449849 -3.53713274 -0.00796652 0 0 Z " fill="#F9F9F9" transform="translate(681.5,537.875)"/>
</svg>
