<?xml version="1.0" encoding="UTF-8"?>
<svg version="1.1" xmlns="http://www.w3.org/2000/svg" width="1500" height="1500">
<path d="M0 0 C495 0 990 0 1500 0 C1500 495 1500 990 1500 1500 C1005 1500 510 1500 0 1500 C0 1005 0 510 0 0 Z " fill="#FEFEFE" transform="translate(0,0)"/>
<path d="M0 0 C265.56338028 0 265.56338028 0 290 5 C291.10770752 5.22115479 291.10770752 5.22115479 292.23779297 5.44677734 C328.01677042 12.8101199 363.66369884 30.72134855 391 55 C391.84433594 55.74765625 392.68867187 56.4953125 393.55859375 57.265625 C395.24298871 58.77312003 396.92034712 60.2885221 398.58984375 61.8125 C400.92581254 63.93266617 403.30326875 65.9969731 405.6875 68.0625 C409.84663214 71.76434536 413.4276494 75.73926542 417 80 C417.81082031 80.92296875 418.62164063 81.8459375 419.45703125 82.796875 C443.61351451 110.4212593 459.9453323 142.83626893 470 178 C470.22413574 178.78181641 470.44827148 179.56363281 470.67919922 180.36914062 C472.0272768 185.20681332 473.09634605 190.06089504 474 195 C474.22212158 196.1751416 474.22212158 196.1751416 474.44873047 197.37402344 C480.87425422 233.13285851 478.51250304 271.33110701 468 306 C467.7515332 306.82467773 467.50306641 307.64935547 467.24707031 308.49902344 C459.50613597 333.64293425 447.73921935 357.89475538 432 379 C431.55156738 379.60392578 431.10313477 380.20785156 430.64111328 380.83007812 C423.97303506 389.73365538 416.70696166 397.98649694 409 406 C408.29593018 406.73694092 408.29593018 406.73694092 407.57763672 407.48876953 C387.88728677 428.00673489 363.71327683 444.03412175 338 456 C336.94184082 456.49282471 336.94184082 456.49282471 335.86230469 456.99560547 C306.06890142 470.6525816 274.78348969 477.20856033 242.06152344 477.11352539 C240.71001691 477.11324253 239.35851023 477.11340318 238.00700378 477.1139679 C234.37765103 477.11425201 230.74833206 477.10841822 227.11898708 477.10139394 C223.31136184 477.09509564 219.50373561 477.09455152 215.69610596 477.09336853 C208.50351525 477.09027416 201.31093995 477.08208658 194.11835599 477.07201904 C184.38650899 477.05869617 174.65465771 477.05334268 164.92280388 477.04751682 C149.61519108 477.0381452 134.30761075 477.01821371 119 477 C119 516.6 119 556.2 119 597 C79.73 597 40.46 597 0 597 C0 399.99 0 202.98 0 0 Z " fill="#000000" transform="translate(777,421)"/>
<path d="M0 0 C157.41 0 314.82 0 477 0 C477 39.27 477 78.54 477 119 C417.93 119 358.86 119 298 119 C298 276.74 298 434.48 298 597 C258.73 597 219.46 597 179 597 C179 439.26 179 281.52 179 119 C119.93 119 60.86 119 0 119 C0 79.73 0 40.46 0 0 Z " fill="#000000" transform="translate(236,421)"/>
<path d="M0 0 C20.810625 -0.04125 41.62125 -0.0825 63.0625 -0.125 C72.88140991 -0.15231201 72.88140991 -0.15231201 82.89868164 -0.18017578 C90.95593262 -0.18920898 90.95593262 -0.18920898 94.74021912 -0.19088745 C97.35630644 -0.19393791 99.97219346 -0.20016125 102.58824158 -0.21115112 C142.43354091 -0.37109295 175.68087327 7.73032139 205.1875 35.75 C228.01092117 59.47286634 239.53414207 90.4341855 239.1484375 123.125 C238.52001029 149.58075543 228.81356467 175.56199274 212 196 C211.36457275 196.77778809 211.36457275 196.77778809 210.71630859 197.57128906 C191.56684307 220.60250033 163.71953573 234.71362455 134.21476555 238.79652214 C129.18899565 239.2582563 124.13039053 239.12850147 119.08813477 239.11352539 C117.77888251 239.11364593 116.46963026 239.11376646 115.1207037 239.11389065 C111.59478557 239.11411543 108.06890171 239.10834008 104.54299164 239.10128021 C101.22849118 239.09556471 97.91399211 239.09531597 94.5994873 239.09460449 C84.92048704 239.08936732 75.24149308 239.07540609 65.5625 239.0625 C33.1090625 239.0315625 33.1090625 239.0315625 0 239 C0 160.13 0 81.26 0 0 Z " fill="#FEFEFE" transform="translate(896,540)"/>
</svg>
