<svg xmlns="http://www.w3.org/2000/svg" xml:space="preserve" width="2000" height="490" data-id="lg_dDyttxwqpSsk4CiQTQ" data-version="1" viewBox="0 0 2000 490"><g data-padding="20"><g transform="translate(10 8.813)scale(.96403)"><rect width="192.544" height="169.5" x="162.185" y="-85.324" fill="none" rx="0" ry="0" transform="translate(280 246.66)scale(2.89)"/><path fill="#fff" d="M907.78 137.32V380.4h-60.6V137.32h-91.34V76.5h243.07v60.82Zm244.98 0h-60.82v121.65h60.82q12.51 0 23.53-4.77t19.28-13.03q8.27-8.27 13.03-19.4 4.77-11.12 4.77-23.62 0-12.51-4.77-23.63-4.76-11.13-13.03-19.39-8.26-8.27-19.28-13.04t-23.53-4.77m-60.82 182.26v60.82h-60.82V76.5h121.64q16.75 0 32.22 4.35 15.47 4.34 28.92 12.29 13.46 7.95 24.58 19.07 11.13 11.13 19.08 24.69 7.94 13.56 12.29 29.03 4.34 15.47 4.34 32.22 0 25-9.53 47.15-9.54 22.14-26.07 38.67t-38.67 26.07q-22.15 9.54-47.16 9.54Z"/></g><path fill="transparent" stroke="transparent" d="M722 0h556v490H722z"/></g></svg>