<?xml version="1.0" encoding="UTF-8"?>
<svg version="1.1" xmlns="http://www.w3.org/2000/svg" width="2000" height="406">
<path d="M0 0 C7.46881728 5.9962283 7.46881728 5.9962283 8.84375 8.74609375 C12.16315087 7.2947862 14.37150203 5.43979428 16.96875 2.93359375 C28.68089841 -7.64759434 43.63030473 -10.61581815 59.0234375 -10.46875 C78.6466907 -9.36519282 95.21746126 -1.2615277 108.84375 12.74609375 C121.56994729 28.15835317 126.02028155 45.18901966 125.95727539 64.73999023 C125.95742142 65.93094803 125.95756744 67.12190582 125.9577179 68.34895325 C125.95714278 71.59638649 125.95214571 74.84377601 125.94514394 78.09120059 C125.93887028 81.49179311 125.93830343 84.89238659 125.93711853 88.29298401 C125.93401701 94.72429876 125.92581958 101.1555964 125.91576904 107.58690363 C125.9045712 114.91219628 125.89908822 122.23748976 125.89407361 129.56278884 C125.88363593 144.62390156 125.86530518 159.68499207 125.84375 174.74609375 C110.33375 174.74609375 94.82375 174.74609375 78.84375 174.74609375 C78.82187622 169.40164063 78.82187622 169.40164063 78.79956055 163.94921875 C78.74919934 152.17058487 78.68275074 140.39207197 78.60803509 128.61357117 C78.5631318 121.47302733 78.52370468 114.33253277 78.49731445 107.19189453 C78.47428992 100.96574383 78.44084251 94.73974975 78.39504844 88.51372337 C78.37117582 85.21919728 78.35396317 81.92485791 78.34613609 78.63024902 C78.33649795 74.945974 78.30844017 71.26226133 78.27612305 67.578125 C78.27755814 66.49414932 78.27899323 65.41017365 78.2804718 64.29335022 C78.17773645 55.99889399 76.96285185 48.8651956 70.84375 42.74609375 C64.88694081 38.62643132 60.04762198 37.26583562 52.84375 37.74609375 C46.24934134 39.45111196 41.15963798 42.2859667 37.59375 48.24609375 C35.39460278 52.64438819 34.72160547 55.85938155 34.68553162 60.74481201 C34.6757428 61.751595 34.66595398 62.75837799 34.65586853 63.79566956 C34.65011307 64.89402634 34.6443576 65.99238312 34.63842773 67.12402344 C34.62852814 68.28528244 34.61862854 69.44654144 34.60842896 70.64299011 C34.57681998 74.48462886 34.55205876 78.32627997 34.52734375 82.16796875 C34.50677371 84.83026555 34.48582477 87.49255665 34.46437073 90.15484619 C34.41448886 96.44810561 34.36953335 102.74139018 34.32634836 109.03469872 C34.27693744 116.20034397 34.22203362 123.36594383 34.16666877 130.53154516 C34.05291792 145.26968611 33.94678899 160.00787367 33.84375 174.74609375 C18.33375 174.74609375 2.82375 174.74609375 -13.15625 174.74609375 C-13.16035889 171.16330566 -13.16446777 167.58051758 -13.16870117 163.88916016 C-13.18591975 152.03467192 -13.23020631 140.18038945 -13.28834057 128.32604408 C-13.32292043 121.1406684 -13.34833684 113.95548316 -13.35180664 106.77001953 C-13.35485635 100.50350049 -13.375481 94.23732124 -13.41677457 87.97093332 C-13.43801617 84.65608825 -13.44812921 81.34182881 -13.44240379 78.02690506 C-13.43748899 74.31640582 -13.46363362 70.60730032 -13.49682617 66.89697266 C-13.48388771 65.26776886 -13.48388771 65.26776886 -13.47068787 63.60565186 C-13.59263185 55.44191174 -15.47184127 48.33109179 -21.47265625 42.4921875 C-22.21386719 42.06035156 -22.95507812 41.62851563 -23.71875 41.18359375 C-24.46253906 40.72855469 -25.20632813 40.27351563 -25.97265625 39.8046875 C-30.84169465 37.44420556 -35.91652584 36.90844644 -41.2109375 38.27734375 C-48.74391119 40.8925648 -52.62740886 44.68841147 -56.15625 51.74609375 C-57.11340967 54.78980323 -57.29096515 57.5618025 -57.31446838 60.74481201 C-57.32915161 62.2549865 -57.32915161 62.2549865 -57.34413147 63.79566956 C-57.34988693 64.89402634 -57.3556424 65.99238312 -57.36157227 67.12402344 C-57.37147186 68.28528244 -57.38137146 69.44654144 -57.39157104 70.64299011 C-57.42318002 74.48462886 -57.44794124 78.32627997 -57.47265625 82.16796875 C-57.49322629 84.83026555 -57.51417523 87.49255665 -57.53562927 90.15484619 C-57.58551114 96.44810561 -57.63046665 102.74139018 -57.67365164 109.03469872 C-57.72306256 116.20034397 -57.77796638 123.36594383 -57.83333123 130.53154516 C-57.94708208 145.26968611 -58.05321101 160.00787367 -58.15625 174.74609375 C-73.66625 174.74609375 -89.17625 174.74609375 -105.15625 174.74609375 C-105.15625 114.68609375 -105.15625 54.62609375 -105.15625 -7.25390625 C-93.15625 -7.25390625 -93.15625 -7.25390625 -89.21875 -4.12890625 C-88.16655227 -2.86265849 -87.14448688 -1.57067933 -86.15625 -0.25390625 C-85.17988677 0.89431683 -84.20098093 2.04038608 -83.21875 3.18359375 C-82.1978125 4.45203125 -82.1978125 4.45203125 -81.15625 5.74609375 C-80.19138672 5.09253906 -80.19138672 5.09253906 -79.20703125 4.42578125 C-55.74049594 -11.04003803 -24.58374041 -17.55546809 0 0 Z " fill="#FFFFFF" transform="translate(923.15625,137.25390625)"/>
<path d="M0 0 C137.11288265 0 137.11288265 0 167.75 29.3125 C186.88096043 49.16538347 195.73838891 74.66646892 195.2734375 102.0078125 C194.21500321 128.59442435 181.7378105 152.09969712 162.890625 170.484375 C137.45456054 192.62062569 107.89230624 195.3534792 75.5625 195.125 C73.07747757 195.11494903 70.5924512 195.10582693 68.10742188 195.09765625 C62.07143586 195.07752959 56.0360065 195.03835091 50 195 C50 210.84 50 226.68 50 243 C33.5 243 17 243 0 243 C0 162.81 0 82.62 0 0 Z M50 50 C50 81.35 50 112.7 50 145 C59.178125 145.0825 68.35625 145.165 77.8125 145.25 C80.68815674 145.28641602 83.56381348 145.32283203 86.52661133 145.36035156 C88.83674374 145.37204724 91.14688446 145.38223697 93.45703125 145.390625 C95.21871643 145.4213208 95.21871643 145.4213208 97.01599121 145.45263672 C110.16099762 145.45813385 122.06910357 140.77276532 131.75 131.75 C135.60736987 127.61126903 138.42094876 123.01688642 141 118 C141.41636719 117.20207031 141.83273437 116.40414062 142.26171875 115.58203125 C146.67490774 105.59428775 146.87235856 92.26793305 143.375 81.9375 C142.63686098 80.26697485 141.84489038 78.61915525 141 77 C140.55269531 76.12988281 140.10539062 75.25976562 139.64453125 74.36328125 C132.89373318 62.2552815 123.09459083 55.49687529 110.181427 50.8658905 C104.63150746 49.35536626 99.17287471 49.5097815 93.45703125 49.609375 C91.7928717 49.61541748 91.7928717 49.61541748 90.09509277 49.62158203 C86.00072389 49.64231089 81.9065931 49.69815426 77.8125 49.75 C64.0453125 49.87375 64.0453125 49.87375 50 50 Z " fill="#FFFFFF" transform="translate(1286,69)"/>
<path d="M0 0 C15.84 0 31.68 0 48 0 C48.33 25.41 48.66 50.82 49 77 C53.62 74.69 58.24 72.38 63 70 C81.99626056 64.34486322 103.10721716 67.80706896 120.45849609 76.79711914 C126.17487619 79.92615297 131.19401481 83.5902978 136 88 C136.75539063 88.66386719 137.51078125 89.32773438 138.2890625 90.01171875 C152.70139149 103.40874621 162.01038494 123.12449227 163.16100693 142.7455864 C163.41722595 150.5569026 163.34453353 158.36948971 163.29296875 166.18359375 C163.28736322 168.69564051 163.28309765 171.20769059 163.28010559 173.71974182 C163.26988955 179.61608325 163.24633712 185.51224888 163.21605712 191.40851885 C163.17896972 198.79379966 163.16306535 206.17910276 163.14648438 213.56445312 C163.11445283 226.7097387 163.06174716 239.85482039 163 253 C147.49 253 131.98 253 116 253 C115.96261719 245.31976563 115.92523438 237.63953125 115.88671875 229.7265625 C115.8564296 224.85023831 115.82527543 219.97395021 115.79101562 215.09765625 C115.73676347 207.36411389 115.68565031 199.63064289 115.65356445 191.89697266 C115.62748456 185.65932812 115.58704845 179.42192429 115.53681374 173.18442917 C115.5201768 170.80913673 115.50864283 168.43380269 115.50238609 166.05846024 C115.49271071 162.72182453 115.4646093 159.38580024 115.43237305 156.04931641 C115.43380814 155.0753894 115.43524323 154.1014624 115.4367218 153.09802246 C115.29716059 142.83001648 112.72096054 133.90166982 106 126 C98.82614806 119.32190205 90.34219778 115.56822703 80.4453125 115.71875 C72.17929331 116.66947425 64.96423915 119.19695651 59 125 C58.34 125 57.68 125 57 125 C56.72285156 125.5671875 56.44570313 126.134375 56.16015625 126.71875 C54.5911452 129.80394344 52.85075124 132.78386135 51.12109375 135.78125 C49.28489212 139.41526577 48.87380898 142.65040834 48.84178162 146.69500732 C48.82709839 148.10421196 48.82709839 148.10421196 48.81211853 149.54188538 C48.80636307 150.56543625 48.8006076 151.58898712 48.79467773 152.64355469 C48.78477814 153.72678513 48.77487854 154.81001556 48.76467896 155.92607117 C48.73308125 159.50798351 48.70831323 163.08990912 48.68359375 166.671875 C48.66302274 169.15480902 48.64202623 171.63773954 48.62062073 174.1206665 C48.57105845 179.98893543 48.52578916 185.8572252 48.48259836 191.72554421 C48.42833059 199.06315993 48.3673998 206.40071664 48.30664062 213.73828125 C48.1990777 226.82548317 48.09813248 239.91272397 48 253 C32.16 253 16.32 253 0 253 C0 169.51 0 86.02 0 0 Z " fill="#FFFFFF" transform="translate(299,59)"/>
<path d="M0 0 C3.88426386 3.70940269 7.67233619 7.50408731 11.32177734 11.44482422 C12.31177734 12.47349609 12.31177734 12.47349609 13.32177734 13.52294922 C14.32177734 15.44482422 14.32177734 15.44482422 13.75537109 17.91748047 C12.21325705 20.63613929 10.5463405 22.6264283 8.38427734 24.88232422 C4.7257989 28.82671246 1.34998602 32.87546598 -1.92822266 37.13232422 C-6.42164586 42.94499798 -11.13856393 48.51774682 -15.97753906 54.04467773 C-19.89283574 58.52071958 -23.68933121 63.07689038 -27.43212891 67.69873047 C-29.99712659 70.83471894 -32.61479725 73.92237737 -35.24072266 77.00732422 C-38.44570784 80.77562983 -41.6051035 84.56728941 -44.67822266 88.44482422 C-47.75136515 92.32238847 -50.91129812 96.11351531 -54.11572266 99.88232422 C-57.69432399 104.09822777 -61.26909493 108.31650992 -64.80322266 112.56982422 C-65.88990234 113.87306641 -65.88990234 113.87306641 -66.99853516 115.20263672 C-68.84655988 117.42367155 -68.84655988 117.42367155 -69.67822266 120.44482422 C-55.18861371 121.16629852 -43.03114928 119.28136697 -31.67822266 109.44482422 C-27.36308392 105.22757143 -24.04075588 101.00372591 -21.67822266 95.44482422 C-18.30526708 96.02831272 -16.67816467 97.07583528 -14.28662109 99.49584961 C-13.64625916 100.13643814 -13.00589722 100.77702667 -12.34613037 101.43702698 C-11.66681458 102.13182663 -10.98749878 102.82662628 -10.28759766 103.54248047 C-9.58298401 104.25133896 -8.87837036 104.96019745 -8.15240479 105.6905365 C-5.90387481 107.95585702 -3.66600027 110.2313863 -1.42822266 112.50732422 C0.09452442 114.04511757 1.61795388 115.58223553 3.14208984 117.11865234 C6.87660544 120.88624223 10.60242584 124.66226686 14.32177734 128.44482422 C10.1537691 135.99130117 10.1537691 135.99130117 7.43896484 138.72607422 C6.91713623 139.25434814 6.39530762 139.78262207 5.85766602 140.3269043 C5.30957275 140.86081787 4.76147949 141.39473145 4.19677734 141.94482422 C3.61839111 142.51160889 3.04000488 143.07839355 2.4440918 143.66235352 C-17.53261813 162.8882461 -41.68322399 169.00724281 -68.79150391 168.72607422 C-81.36306322 168.38282345 -92.52363009 165.29754254 -103.67822266 159.44482422 C-104.55478516 159.02716797 -105.43134766 158.60951172 -106.33447266 158.17919922 C-128.07161 147.31063055 -142.62218079 126.92259438 -150.67822266 104.44482422 C-158.49443992 77.8754117 -156.0266746 48.29089805 -143.36572266 23.63232422 C-140.03660047 17.7227689 -136.07176392 12.59024986 -131.67822266 7.44482422 C-130.76556641 6.23246094 -130.76556641 6.23246094 -129.83447266 4.99560547 C-116.28916835 -11.02809691 -94.13723301 -20.5250583 -73.65478516 -22.90673828 C-46.91569283 -25.08824931 -20.09531772 -18.62193393 0 0 Z M-95.55322266 39.19482422 C-103.7567795 48.85124713 -107.07212396 60.20353968 -106.99072266 72.69482422 C-106.98943359 73.52022705 -106.98814453 74.34562988 -106.98681641 75.19604492 C-106.88206193 81.90753325 -105.81801432 88.06365978 -103.67822266 94.44482422 C-102.68822266 94.44482422 -101.69822266 94.44482422 -100.67822266 94.44482422 C-99.21019449 93.0077404 -99.21019449 93.0077404 -97.88525391 91.02685547 C-97.07604492 89.9034375 -97.07604492 89.9034375 -96.25048828 88.75732422 C-95.66976562 87.93232422 -95.08904297 87.10732422 -94.49072266 86.25732422 C-93.22812886 84.50217281 -91.96373945 82.748312 -90.69775391 80.99560547 C-90.03855957 80.0798877 -89.37936523 79.16416992 -88.70019531 78.22070312 C-85.43477753 73.73775213 -82.05611684 69.34327366 -78.67822266 64.94482422 C-71.747382 55.89246912 -64.95066604 46.74787445 -58.22802734 37.54003906 C-57.14931094 36.08169878 -56.05495188 34.63485376 -54.94873047 33.19726562 C-54.39797852 32.48103027 -53.84722656 31.76479492 -53.27978516 31.02685547 C-52.78043457 30.38594971 -52.28108398 29.74504395 -51.76660156 29.0847168 C-50.49389549 27.49512659 -50.49389549 27.49512659 -50.67822266 25.44482422 C-67.20031852 20.51996872 -84.08493309 27.27159424 -95.55322266 39.19482422 Z " fill="#FFFFFF" transform="translate(638.67822265625,146.55517578125)"/>
<path d="M0 0 C0.79792969 0.64324219 1.59585937 1.28648437 2.41796875 1.94921875 C19.52196954 16.29536515 29.7426757 38.25680451 32.68359375 60.16796875 C34.96831329 87.83846101 30.6398538 115.42332573 12.328125 137.2890625 C9.67140818 140.31943917 6.86373825 143.16489913 4 146 C3.22140625 146.80050781 2.4428125 147.60101563 1.640625 148.42578125 C-16.94977043 166.48591372 -41.11463735 171.57098971 -66.14453125 171.265625 C-87.8574492 170.66158364 -106.89882899 161.24418385 -123 147 C-123.69222656 146.40703125 -124.38445312 145.8140625 -125.09765625 145.203125 C-143.1155022 128.62178158 -151.9715779 102.84561479 -153 79 C-153.49815074 51.69686181 -144.71960595 26.52816112 -125.68359375 6.71875 C-109.25193112 -9.92817458 -87.34975706 -19.96110002 -63.88671875 -21.03125 C-40.45543602 -20.84285778 -18.07927126 -15.69955 0 0 Z M-94.3359375 42.5390625 C-103.04455925 55.41801015 -106.85307973 68.76677837 -104.5 84.30078125 C-101.53271417 98.64828263 -94.8638691 109.65539011 -82.5625 117.9375 C-71.92427447 124.17623807 -60.88113864 125.85372823 -48.6875 123.30859375 C-36.72997766 119.66337967 -26.4687274 112.16147112 -20.12890625 101.28125 C-13.71953509 88.32944115 -12.2866284 73.98062216 -16 60 C-20.99377021 46.46484908 -28.66955696 36.20155394 -42 30 C-60.11798077 23.494221 -81.78492972 27.01388226 -94.3359375 42.5390625 Z " fill="#FFFFFF" transform="translate(1224,144)"/>
<path d="M0 0 C20.513292 21.35453111 26.45982933 48.1907566 26.0625 76.984375 C25.79492773 85.50655165 24.48234732 93.07176579 21.75 101.125 C21.53037598 101.77597656 21.31075195 102.42695313 21.08447266 103.09765625 C12.30170453 128.50739163 -5.7035785 146.52135183 -29.5 158.375 C-50.13432357 167.34431405 -74.95402747 168.67764142 -96.25 161.125 C-97.29671875 160.76277344 -98.3434375 160.40054688 -99.421875 160.02734375 C-111.65076661 155.35438647 -121.90611545 148.19501207 -131.25 139.125 C-131.93578125 138.51269531 -132.6215625 137.90039062 -133.328125 137.26953125 C-148.59505455 123.17466912 -158.39778276 100.03965928 -159.37646484 79.46655273 C-160.12742576 50.40627866 -154.01016408 24.35968045 -134.25 2.125 C-127.64029819 -4.71427177 -120.50338679 -10.17531552 -112.25 -14.875 C-111.36183594 -15.39835938 -110.47367188 -15.92171875 -109.55859375 -16.4609375 C-73.97922876 -35.9578357 -28.64465826 -27.52639833 0 0 Z M-95.25 31.125 C-95.86359375 31.60324219 -96.4771875 32.08148438 -97.109375 32.57421875 C-104.80450224 39.33299201 -110.45615997 51.31627411 -111.4831543 61.41845703 C-112.35831721 77.22715206 -110.47761498 89.90781626 -100.41015625 102.72265625 C-92.9191345 111.05353939 -82.31101075 117.63185581 -70.9296875 118.328125 C-56.49152649 118.50600789 -44.90678701 115.07846398 -34.09765625 105.12890625 C-24.21786304 94.41361256 -20.7892152 80.21923629 -21.0390625 66.04296875 C-21.71997559 53.39563862 -26.82124909 40.83182798 -36.25 32.125 C-53.74899726 18.1662623 -77.4579812 16.73027613 -95.25 31.125 Z " fill="#FFFFFF" transform="translate(1734.25,149.875)"/>
<path d="M0 0 C64.35 0 128.7 0 195 0 C195 16.5 195 33 195 50 C170.91 50 146.82 50 122 50 C122 113.69 122 177.38 122 243 C105.83 243 89.66 243 73 243 C73 179.31 73 115.62 73 50 C48.91 50 24.82 50 0 50 C0 33.5 0 17 0 0 Z " fill="#FFFFFF" transform="translate(85,69)"/>
<path d="M0 0 C15.51 0 31.02 0 47 0 C47 23.76 47 47.52 47 72 C70.1 72 93.2 72 117 72 C117 87.51 117 103.02 117 119 C93.9 119 70.8 119 47 119 C47.103125 128.19875 47.20625 137.3975 47.3125 146.875 C47.33739502 149.75976074 47.36229004 152.64452148 47.38793945 155.61669922 C47.42025533 157.92937807 47.45363268 160.24204243 47.48828125 162.5546875 C47.49452515 163.73426025 47.50076904 164.91383301 47.50720215 166.12915039 C47.69760921 177.16814402 49.74866758 186.43323313 57 195 C64.88975576 202.61828029 74.39326664 205.59517755 85.1640625 205.609375 C85.97963623 205.62500488 86.79520996 205.64063477 87.63549805 205.65673828 C90.63171024 205.70865216 93.62842268 205.72748489 96.625 205.75 C103.34875 205.8325 110.0725 205.915 117 206 C117 221.51 117 237.02 117 253 C109.86375 253.061875 102.7275 253.12375 95.375 253.1875 C92.04220947 253.22846802 92.04220947 253.22846802 88.64208984 253.27026367 C63.59821448 253.45002157 41.7396879 246.9515281 23.30078125 229.41796875 C5.55066632 210.76377326 -0.20416493 188.65557603 -0.09765625 163.43359375 C-0.0962413 162.15895767 -0.09482635 160.88432159 -0.09336853 159.57106018 C-0.08874507 156.21248433 -0.07978925 152.85397883 -0.06866455 149.49542236 C-0.05836228 146.05619916 -0.05385218 142.61696863 -0.04882812 139.17773438 C-0.03784188 132.45180129 -0.02059955 125.72591024 0 119 C-7.26 119 -14.52 119 -22 119 C-22 103.49 -22 87.98 -22 72 C-14.74 72 -7.48 72 0 72 C0 48.24 0 24.48 0 0 Z " fill="#FFFFFF" transform="translate(1793,59)"/>
<path d="M0 0 C15.84 0 31.68 0 48 0 C48 83.49 48 166.98 48 253 C32.16 253 16.32 253 0 253 C0 169.51 0 86.02 0 0 Z " fill="#FFFFFF" transform="translate(1503,59)"/>
<path d="M0 0 C12 0 12 0 15.7265625 3.32421875 C16.73360082 4.75063725 17.69969521 6.20675459 18.625 7.6875 C19.12644531 8.40873047 19.62789062 9.12996094 20.14453125 9.87304688 C22.57096483 13.43463503 24.62162613 16.88920264 26 21 C26.79921875 20.41992188 27.5984375 19.83984375 28.421875 19.2421875 C42.4017625 9.23600574 57.88625137 0.84422548 75.54638672 0.88647461 C76.60703339 0.88655014 77.66768005 0.88662567 78.76046753 0.88670349 C80.45298141 0.89444542 80.45298141 0.89444542 82.1796875 0.90234375 C83.93153854 0.90446617 83.93153854 0.90446617 85.71878052 0.90663147 C89.43754674 0.91221502 93.15625207 0.92476456 96.875 0.9375 C99.4010408 0.94251712 101.92708254 0.94707966 104.453125 0.95117188 C110.63545882 0.96132683 116.8176615 0.98090561 123 1 C123 16.51 123 32.02 123 48 C119.57882812 48.02578125 116.15765625 48.0515625 112.6328125 48.078125 C109.29321313 48.11661577 105.95376449 48.16175347 102.61425781 48.20751953 C100.30606366 48.23562097 97.99777522 48.25688895 95.68945312 48.27099609 C92.35758564 48.29257555 89.02683908 48.33930391 85.6953125 48.390625 C84.67511017 48.39185364 83.65490784 48.39308228 82.60379028 48.39434814 C72.39686696 48.59966735 63.43246219 51.83298289 56 59 C49.12377475 67.30877217 47.55173274 77.29796597 47.56762695 87.77392578 C47.5574353 88.79951096 47.54724365 89.82509613 47.53674316 90.88175964 C47.50680156 94.23633419 47.49737601 97.59062232 47.48828125 100.9453125 C47.47142062 103.28515559 47.45326853 105.6249897 47.43388367 107.96481323 C47.3865281 114.09673252 47.3566253 120.22861537 47.33044434 126.36065674 C47.29530446 133.73226204 47.23833293 141.10372752 47.18505096 148.47521973 C47.10670659 159.65012837 47.05597222 170.82485609 47 182 C31.49 182 15.98 182 0 182 C0 121.94 0 61.88 0 0 Z " fill="#FFFFFF" transform="translate(675,130)"/>
</svg>
