<?xml version="1.0" encoding="UTF-8"?>
<svg version="1.1" xmlns="http://www.w3.org/2000/svg" width="1290" height="193">
<path d="M0 0 C0.928125 0.86625 0.928125 0.86625 1.875 1.75 C2.37128906 1.34007813 2.86757813 0.93015625 3.37890625 0.5078125 C11.95280668 -6.29273851 20.06848615 -7.24842791 30.875 -6.25 C35.44077594 -5.04876609 39.65868056 -3.35815972 43.875 -1.25 C43.875 -0.59 43.875 0.07 43.875 0.75 C44.473125 1.018125 45.07125 1.28625 45.6875 1.5625 C47.87347854 2.74917406 49.28832594 3.84599113 50.875 5.75 C50.875 6.41 50.875 7.07 50.875 7.75 C51.535 7.75 52.195 7.75 52.875 7.75 C58.25696719 17.79633876 59.17072536 26.08542 59.10546875 37.40234375 C59.10501053 38.69821915 59.10455231 39.99409454 59.1040802 41.32923889 C59.10252538 44.054916 59.09430694 46.78045988 59.08081055 49.50610352 C59.06370344 53.00558202 59.0600001 56.50491628 59.06075573 60.00443172 C59.06041955 63.34542189 59.05159449 66.68636426 59.04296875 70.02734375 C59.04185593 71.28763901 59.0407431 72.54793427 59.03959656 73.84642029 C59.03321671 75.00174759 59.02683685 76.15707489 59.02026367 77.34741211 C59.01645187 78.36919052 59.01264008 79.39096893 59.00871277 80.44371033 C58.875 82.75 58.875 82.75 57.875 83.75 C56.17941274 83.84932153 54.47974253 83.88080007 52.78125 83.8828125 C51.75128906 83.88410156 50.72132813 83.88539063 49.66015625 83.88671875 C48.03400391 83.88091797 48.03400391 83.88091797 46.375 83.875 C45.29089844 83.87886719 44.20679688 83.88273437 43.08984375 83.88671875 C41.54490234 83.88478516 41.54490234 83.88478516 39.96875 83.8828125 C39.01677734 83.88168457 38.06480469 83.88055664 37.08398438 83.87939453 C34.875 83.75 34.875 83.75 33.875 82.75 C33.75680903 80.89477788 33.70762852 79.03512149 33.68554688 77.17626953 C33.66882935 75.98478302 33.65211182 74.79329651 33.6348877 73.56570435 C33.62131226 72.26785004 33.60773682 70.96999573 33.59375 69.6328125 C33.57571823 68.29620606 33.55711552 66.95960722 33.53796387 65.62301636 C33.47817875 61.37374043 33.42609509 57.1243881 33.375 52.875 C33.31578033 47.95879616 33.25342951 43.0426724 33.18312073 38.12661362 C33.15655155 36.15518735 33.13579851 34.18368549 33.1151123 32.21218872 C33.09839478 31.01439789 33.08167725 29.81660706 33.06445312 28.58251953 C33.05192505 27.52630402 33.03939697 26.4700885 33.02648926 25.38186646 C32.98365468 22.64064805 32.98365468 22.64064805 31.875 19.75 C26.26085466 17.07659746 21.62923347 17.83192218 15.875 19.75 C14.60892964 22.92915757 14.72648581 26.21808154 14.68554688 29.60424805 C14.66882935 30.7819426 14.65211182 31.95963715 14.6348877 33.17301941 C14.62131226 34.43979019 14.60773682 35.70656097 14.59375 37.01171875 C14.56563009 38.99977937 14.53750488 40.98783994 14.50905609 42.97589588 C14.45052717 47.17197422 14.40035751 51.36816071 14.34893799 55.56433105 C14.30622312 59.02672436 14.26166086 62.48906849 14.21203613 65.95137024 C14.17521596 68.54879351 14.14281618 71.14628369 14.1151123 73.74382019 C14.09839478 74.91205826 14.08167725 76.08029633 14.06445312 77.28393555 C14.04566101 78.83470039 14.04566101 78.83470039 14.02648926 80.41679382 C13.875 82.75 13.875 82.75 12.875 83.75 C11.25242456 83.8491657 9.62560169 83.88079777 8 83.8828125 C7.01515625 83.88410156 6.0303125 83.88539063 5.015625 83.88671875 C3.97921875 83.88285156 2.9428125 83.87898438 1.875 83.875 C0.32039062 83.88080078 0.32039062 83.88080078 -1.265625 83.88671875 C-2.25046875 83.88542969 -3.2353125 83.88414062 -4.25 83.8828125 C-5.16007813 83.88168457 -6.07015625 83.88055664 -7.0078125 83.87939453 C-9.125 83.75 -9.125 83.75 -10.125 82.75 C-10.23258123 80.9663351 -10.27125759 79.17847115 -10.28271484 77.39160156 C-10.29297699 76.24661194 -10.30323914 75.10162231 -10.31381226 73.92193604 C-10.32111359 72.67410339 -10.32841492 71.42627075 -10.3359375 70.140625 C-10.36400974 67.52343128 -10.39267423 64.90624387 -10.421875 62.2890625 C-10.46430522 58.14358912 -10.50105326 53.99815375 -10.52636719 49.85253906 C-10.5513739 45.86502001 -10.59982719 41.8779277 -10.6484375 37.890625 C-10.65169037 36.65088928 -10.65494324 35.41115356 -10.65829468 34.1338501 C-10.67486115 32.97625183 -10.69142761 31.81865356 -10.70849609 30.62597656 C-10.71658295 29.60973206 -10.7246698 28.59348755 -10.73300171 27.54644775 C-11.28127186 23.63518368 -12.75500673 20.82642328 -15.875 18.375 C-19.26612087 17.43302198 -21.73491203 17.90247801 -25.125 18.75 C-27.4431362 20.64111111 -28.79414015 22.08828031 -30.125 24.75 C-30.23960524 26.5926533 -30.29184326 28.439325 -30.31445312 30.28540039 C-30.33117065 31.44322525 -30.34788818 32.60105011 -30.3651123 33.79396057 C-30.37868774 35.04918015 -30.39226318 36.30439972 -30.40625 37.59765625 C-30.43437024 39.55615871 -30.46249578 41.51466111 -30.49094391 43.47315884 C-30.54958998 47.61914208 -30.59957817 51.76523877 -30.65106201 55.91131592 C-30.6937736 59.32515645 -30.73835056 62.73894692 -30.78796387 66.1526947 C-30.82480587 68.71673065 -30.85720056 71.28083482 -30.8848877 73.84498596 C-30.90160522 74.99965866 -30.91832275 76.15433136 -30.93554688 77.34399414 C-30.95433899 78.87716026 -30.95433899 78.87716026 -30.97351074 80.44129944 C-31.125 82.75 -31.125 82.75 -32.125 83.75 C-33.74757544 83.8491657 -35.37439831 83.88079777 -37 83.8828125 C-37.98484375 83.88410156 -38.9696875 83.88539063 -39.984375 83.88671875 C-41.02078125 83.88285156 -42.0571875 83.87898438 -43.125 83.875 C-44.67960938 83.88080078 -44.67960938 83.88080078 -46.265625 83.88671875 C-47.25046875 83.88542969 -48.2353125 83.88414062 -49.25 83.8828125 C-50.16007813 83.88168457 -51.07015625 83.88055664 -52.0078125 83.87939453 C-54.125 83.75 -54.125 83.75 -55.125 82.75 C-55.22016211 80.0111158 -55.25054594 77.29752059 -55.23852539 74.55834961 C-55.23867142 73.69988937 -55.23881744 72.84142914 -55.2389679 71.95695496 C-55.23826847 69.10539262 -55.2304747 66.25389475 -55.22265625 63.40234375 C-55.22079218 61.43079158 -55.21936822 59.45923895 -55.21836853 57.48768616 C-55.21454251 52.28773733 -55.20471152 47.08781625 -55.19366455 41.88787842 C-55.18345222 36.58606339 -55.17887129 31.2842439 -55.17382812 25.98242188 C-55.16308933 15.57160237 -55.14601191 5.16080349 -55.125 -5.25 C-48.4296875 -5.484375 -48.4296875 -5.484375 -45.6875 -3.375 C-44.125 -1.25 -44.125 -1.25 -44.125 0.75 C-43.30515625 0.32847656 -42.4853125 -0.09304687 -41.640625 -0.52734375 C-40.02414062 -1.34912109 -40.02414062 -1.34912109 -38.375 -2.1875 C-37.30765625 -2.73277344 -36.2403125 -3.27804688 -35.140625 -3.83984375 C-23.75125503 -9.16570199 -10.02161671 -7.21556403 0 0 Z " fill="#0A0A0A" transform="translate(611.125,84.25)"/>
<path d="M0 0 C7.37216853 -0.09325368 14.74420699 -0.16404243 22.11684895 -0.20724869 C25.54141087 -0.22800031 28.96556517 -0.25608503 32.38989258 -0.30175781 C36.33930343 -0.35409597 40.28855729 -0.37304794 44.23828125 -0.390625 C45.45018631 -0.41127014 46.66209137 -0.43191528 47.91072083 -0.45318604 C59.15579191 -0.45611389 67.8147881 2.63100873 77 9 C77.99 9.66 78.98 10.32 80 11 C80 11.66 80 12.32 80 13 C80.66 13 81.32 13 82 13 C82 13.66 82 14.32 82 15 C82.66 15 83.32 15 84 15 C92.60568644 25.40058675 96.44286894 37.48272306 95.9375 50.875 C94.65966656 64.28490721 88.84973396 74.95597025 79 84 C78.34 84 77.68 84 77 84 C77 84.66 77 85.32 77 86 C74.86037192 87.13829431 72.71441001 88.26034158 70.5625 89.375 C69.97017578 89.69210938 69.37785156 90.00921875 68.76757812 90.3359375 C59.06685248 95.31598917 49.6973336 95.2628786 38.9375 95.125 C37.58138685 95.11494631 36.22526645 95.1058247 34.86914062 95.09765625 C31.57934936 95.07424137 28.28965076 95.03837571 25 95 C25 102.59 25 110.18 25 118 C21.02078906 118.02682614 17.04175659 118.04675393 13.0625 118.0625 C11.35803711 118.07506836 11.35803711 118.07506836 9.61914062 118.08789062 C8.53955078 118.09111328 7.45996094 118.09433594 6.34765625 118.09765625 C4.84730835 118.10551147 4.84730835 118.10551147 3.31665039 118.11352539 C1 118 1 118 0 117 C-0.09578593 115.4818148 -0.12188147 113.95917604 -0.12025452 112.43797302 C-0.12162918 111.45214233 -0.12300385 110.46631165 -0.12442017 109.4506073 C-0.12082489 108.36016617 -0.11722961 107.26972504 -0.11352539 106.14624023 C-0.11367142 105.00492645 -0.11381744 103.86361267 -0.1139679 102.68771362 C-0.11326818 98.89465469 -0.10547307 95.10164416 -0.09765625 91.30859375 C-0.09579228 88.68685432 -0.09436828 86.06511454 -0.09336853 83.44337463 C-0.09025551 77.23498045 -0.08204252 71.02660379 -0.07201904 64.81821734 C-0.06085699 57.75182559 -0.05534722 50.68543301 -0.05032361 43.61903465 C-0.03985988 29.07934737 -0.022261 14.53967393 0 0 Z M25 25 C25 39.85 25 54.7 25 70 C31.1565625 70.12375 31.1565625 70.12375 37.4375 70.25 C38.71294678 70.28641602 39.98839355 70.32283203 41.30249023 70.36035156 C49.94900154 70.44395136 56.32242644 68.89014046 63.3125 63.75 C68.27727501 58.66976511 70.2264684 54.20090107 70.5625 47.0625 C70.38627241 41.03245171 68.44357114 36.87019346 65 32 C64.34 32 63.68 32 63 32 C63 31.34 63 30.68 63 30 C55.35159106 24.24585349 48.21551839 24.3925869 38.9375 24.6875 C32.0384375 24.8421875 32.0384375 24.8421875 25 25 Z " fill="#080808" transform="translate(783,50)"/>
<path d="M0 0 C3.81248426 -0.02887236 7.6249407 -0.04675492 11.4375 -0.0625 C12.52611328 -0.07087891 13.61472656 -0.07925781 14.73632812 -0.08789062 C15.77080078 -0.09111328 16.80527344 -0.09433594 17.87109375 -0.09765625 C18.82943115 -0.10289307 19.78776855 -0.10812988 20.77514648 -0.11352539 C23 0 23 0 24 1 C24.16003488 3.66426685 24.25942889 6.30560428 24.31640625 8.97265625 C24.33718735 9.77029892 24.35796844 10.56794159 24.37937927 11.38975525 C24.44496158 13.94724611 24.50379967 16.5048428 24.5625 19.0625 C24.60567699 20.79232882 24.64929101 22.52214679 24.69335938 24.25195312 C24.80065172 28.5011926 24.90189426 32.7505389 25 37 C26.10375977 36.51700439 27.20751953 36.03400879 28.34472656 35.53637695 C37.29366793 31.77497647 46.71042479 32.55405409 55.671875 36.0390625 C60.99021814 38.53707216 66.06651115 41.55854404 70 46 C70 46.66 70 47.32 70 48 C70.66 48 71.32 48 72 48 C73.4375 49.90625 73.4375 49.90625 75 52.5 C75.515625 53.3353125 76.03125 54.170625 76.5625 55.03125 C80.38443091 62.92436818 80.28191325 70.60645183 80.23046875 79.21484375 C80.23001053 80.46632706 80.22955231 81.71781036 80.2290802 83.00721741 C80.22530301 86.30958005 80.21234359 89.61174586 80.19561768 92.9140625 C80.18475539 95.62163065 80.18515026 98.3291484 80.18575573 101.03673458 C80.18541956 104.26278584 80.17659476 107.48880553 80.16796875 110.71484375 C80.16685593 111.93139145 80.1657431 113.14793915 80.16459656 114.40135193 C80.15821671 115.51663773 80.15183685 116.63192352 80.14526367 117.78100586 C80.14145187 118.76725449 80.13764008 119.75350311 80.13371277 120.76963806 C80 123 80 123 79 124 C77.37742456 124.0991657 75.75060169 124.13079777 74.125 124.1328125 C73.14015625 124.13410156 72.1553125 124.13539063 71.140625 124.13671875 C70.10421875 124.13285156 69.0678125 124.12898438 68 124.125 C66.44539063 124.13080078 66.44539063 124.13080078 64.859375 124.13671875 C63.87453125 124.13542969 62.8896875 124.13414062 61.875 124.1328125 C60.96492188 124.13168457 60.05484375 124.13055664 59.1171875 124.12939453 C57 124 57 124 56 123 C55.90314473 121.35444513 55.87484195 119.70479907 55.87402344 118.05639648 C55.86831329 116.47356117 55.86831329 116.47356117 55.86248779 114.85874939 C55.86146057 113.70782303 55.86043335 112.55689667 55.859375 111.37109375 C55.84103852 108.94986045 55.82146744 106.52863624 55.80078125 104.10742188 C55.77186209 100.27808433 55.75000151 96.44932671 55.74951172 92.61987305 C55.74616867 88.93225256 55.71155178 85.24597967 55.671875 81.55859375 C55.6789447 80.42183701 55.6860144 79.28508026 55.69329834 78.11387634 C55.58889255 71.26207039 54.75483864 66.17425712 50 61 C45.29583994 58.01466765 41.512132 57.57013985 36.14453125 58.4296875 C31.73040621 59.60357139 28.93772574 61.63907894 26.36572266 65.37182617 C24.36609042 70.68404188 24.53940998 75.73080648 24.5234375 81.36328125 C24.50785797 82.55100632 24.49227844 83.73873138 24.47622681 84.96244812 C24.42878509 88.74579246 24.40095586 92.52895241 24.375 96.3125 C24.33855306 100.1137718 24.29801419 103.91493804 24.25234985 107.71611023 C24.22504272 110.07982708 24.20372677 112.44362181 24.18881226 114.80744934 C24.17341904 116.39996773 24.17341904 116.39996773 24.15771484 118.0246582 C24.15121918 118.96364456 24.14472351 119.90263092 24.13803101 120.87007141 C24 123 24 123 23 124 C21.37742456 124.0991657 19.75060169 124.13079777 18.125 124.1328125 C17.14015625 124.13410156 16.1553125 124.13539063 15.140625 124.13671875 C14.10421875 124.13285156 13.0678125 124.12898438 12 124.125 C10.44539063 124.13080078 10.44539063 124.13080078 8.859375 124.13671875 C7.87453125 124.13542969 6.8896875 124.13414062 5.875 124.1328125 C4.96492188 124.13168457 4.05484375 124.13055664 3.1171875 124.12939453 C1 124 1 124 0 123 C-0.09597204 121.40577964 -0.12187924 119.8072955 -0.12025452 118.21018982 C-0.12162918 117.17387421 -0.12300385 116.13755859 -0.12442017 115.06983948 C-0.12082489 113.92329391 -0.11722961 112.77674835 -0.11352539 111.59545898 C-0.11367142 110.39562378 -0.11381744 109.19578857 -0.1139679 107.95959473 C-0.11338894 104.66014809 -0.10835978 101.36076336 -0.10139394 98.0613277 C-0.09515973 94.61665703 -0.09455655 91.17198562 -0.09336853 87.72731018 C-0.09025541 81.2001727 -0.08204229 74.67305189 -0.07201904 68.14592177 C-0.0608573 60.71677984 -0.0553473 53.28763714 -0.05032361 45.85848892 C-0.03985966 30.57231628 -0.0222606 15.28616028 0 0 Z " fill="#090909" transform="translate(305,44)"/>
<path d="M0 0 C0 0.66 0 1.32 0 2 C0.58136719 2.26039062 1.16273438 2.52078125 1.76171875 2.7890625 C4.15025497 4.08128978 5.86044288 5.49280598 7.8125 7.375 C8.43769531 7.96023437 9.06289063 8.54546875 9.70703125 9.1484375 C11 11 11 11 10.82421875 13.0390625 C10 15 10 15 8 18 C7.34 18 6.68 18 6 18 C5.61328125 18.82757813 5.61328125 18.82757813 5.21875 19.671875 C3.82036875 22.34314175 2.21236695 24.76851909 0.5 27.25 C-0.1084375 28.14203125 -0.716875 29.0340625 -1.34375 29.953125 C-1.8903125 30.62859375 -2.436875 31.3040625 -3 32 C-3.66 32 -4.32 32 -5 32 C-5.24878906 32.55816406 -5.49757813 33.11632812 -5.75390625 33.69140625 C-7.21614398 36.4004423 -8.96844013 38.5696432 -10.9375 40.9375 C-12.12666016 42.37222656 -12.12666016 42.37222656 -13.33984375 43.8359375 C-15.21901164 46.07787637 -17.10949921 48.30999106 -19.00390625 50.5390625 C-19.50220947 51.1256665 -20.0005127 51.71227051 -20.51391602 52.31665039 C-21.49250426 53.46629464 -22.47340615 54.61397413 -23.45678711 55.75952148 C-25.99373406 58.6968492 -25.99373406 58.6968492 -28 62 C-22.05783429 62.49518048 -17.90169469 61.48479857 -13 58 C-10.46286863 55.48208932 -8.19153094 52.82159608 -6 50 C-1.8029482 51.59129926 0.73232331 54.72060183 3.625 58 C4.59610895 59.08355315 5.56745366 60.16689507 6.5390625 61.25 C7.35117187 62.1575 8.16328125 63.065 9 64 C9.66 64.66 10.32 65.32 11 66 C10.73282747 69.87400167 8.47871253 72.16596253 6 75 C-6.94516926 85.09177701 -19.94748999 87.64224472 -36 86 C-39.99741399 85.14569552 -43.38408007 83.8863049 -47 82 C-47.8765625 81.54496094 -48.753125 81.08992188 -49.65625 80.62109375 C-51.80203414 79.45879401 -53.91002583 78.25914493 -56 77 C-56 76.34 -56 75.68 -56 75 C-56.66 75 -57.32 75 -58 75 C-58 74.34 -58 73.68 -58 73 C-58.66 73 -59.32 73 -60 73 C-60 72.34 -60 71.68 -60 71 C-60.66 71 -61.32 71 -62 71 C-71.10653688 58.84949536 -73.17729895 44.90897474 -71.55078125 30.03515625 C-69.22974045 17.2447399 -62.68567061 8.00346121 -52.5 0.0625 C-36.05362339 -10.65492552 -16.75833384 -8.69042869 0 0 Z M-41.8125 23.8125 C-47.30839563 30.62691767 -47.8124135 37.42186924 -47 46 C-46.08073923 48.2915449 -46.08073923 48.2915449 -45 50 C-44.34 48.35 -43.68 46.7 -43 45 C-42.34 45 -41.68 45 -41 45 C-39.75149094 43.41962089 -39.75149094 43.41962089 -38.5 41.3125 C-35.44784948 36.56136914 -32.08920003 32.12999301 -28.60351562 27.69458008 C-25.89041306 24.22444474 -23.39999184 20.68846672 -21 17 C-29.61339483 16.53206909 -35.67700348 17.20989778 -41.8125 23.8125 Z " fill="#090909" transform="translate(466,83)"/>
<path d="M0 0 C9.42962953 7.07589985 15.75354491 16.30213569 18.12890625 27.94140625 C18.97067012 36.77992692 19.0801306 45.32977957 16.50390625 53.87890625 C16.33246094 54.51957031 16.16101563 55.16023438 15.984375 55.8203125 C13.96323043 62.2749355 9.91565461 67.81784815 5.50390625 72.87890625 C4.01890625 73.37390625 4.01890625 73.37390625 2.50390625 73.87890625 C2.50390625 74.53890625 2.50390625 75.19890625 2.50390625 75.87890625 C0.48797972 77.01267545 -1.53409122 78.13552266 -3.55859375 79.25390625 C-4.68394531 79.88039063 -5.80929687 80.506875 -6.96875 81.15234375 C-16.98647608 86.05581543 -28.95992327 86.43384881 -39.828125 84.19140625 C-42.52395127 83.26580066 -44.96788183 82.1921037 -47.49609375 80.87890625 C-48.78386719 80.24275391 -48.78386719 80.24275391 -50.09765625 79.59375 C-59.23862972 74.63663599 -65.51534397 67.44113059 -69.49609375 57.87890625 C-69.88796875 57.01265625 -70.27984375 56.14640625 -70.68359375 55.25390625 C-74.364698 44.49375537 -74.01980057 29.33298491 -69.49609375 18.87890625 C-62.96280864 6.48761098 -53.86958717 -2.68397994 -40.30859375 -6.99609375 C-25.83763442 -10.43473755 -12.21670972 -8.32404546 0 0 Z M-42.49609375 21.87890625 C-42.49609375 22.53890625 -42.49609375 23.19890625 -42.49609375 23.87890625 C-43.15609375 23.87890625 -43.81609375 23.87890625 -44.49609375 23.87890625 C-48.15158653 30.48816775 -49.70745889 36.33443914 -48.49609375 43.87890625 C-45.88337891 51.90202173 -41.33969176 57.07471793 -34.12109375 61.25390625 C-27.69432346 62.78408965 -22.16187994 62.48532183 -16.3515625 59.21484375 C-11.57024721 55.77229674 -8.27322062 51.49977359 -6.49609375 45.87890625 C-5.51367419 36.73723374 -5.83194362 29.34344696 -11.49609375 21.87890625 C-12.15609375 21.87890625 -12.81609375 21.87890625 -13.49609375 21.87890625 C-13.49609375 21.21890625 -13.49609375 20.55890625 -13.49609375 19.87890625 C-22.6139363 13.54707114 -34.24637764 14.28916743 -42.49609375 21.87890625 Z " fill="#090909" transform="translate(995.49609375,84.12109375)"/>
<path d="M0 0 C10.90405606 8.98820322 17.11421165 18.56395956 19.08984375 32.72265625 C20.30046899 46.9138743 17.05042788 60.71376849 7.90234375 71.84765625 C6.421875 73.54296875 6.421875 73.54296875 5.08984375 74.72265625 C4.42984375 74.72265625 3.76984375 74.72265625 3.08984375 74.72265625 C2.868125 75.32851562 2.64640625 75.934375 2.41796875 76.55859375 C0.65376751 79.433204 -1.07796403 80.04235627 -4.16015625 81.34765625 C-5.0934375 81.75242187 -6.02671875 82.1571875 -6.98828125 82.57421875 C-7.9525 82.95320313 -8.91671875 83.3321875 -9.91015625 83.72265625 C-10.81765625 84.09519531 -11.72515625 84.46773438 -12.66015625 84.8515625 C-24.1649483 87.93517864 -38.18164785 86.76779043 -48.6640625 81.28125 C-59.50591531 74.92364652 -67.40376741 65.88980689 -70.91015625 53.72265625 C-71.34007835 49.14597294 -71.28037974 44.56766119 -71.28515625 39.97265625 C-71.30964844 38.74804688 -71.33414063 37.5234375 -71.359375 36.26171875 C-71.40213481 22.94916492 -67.19643173 14.25130264 -58.03125 4.78125 C-42.77994857 -9.48410871 -17.27534926 -12.71440714 0 0 Z M-41.91015625 22.72265625 C-41.91015625 23.38265625 -41.91015625 24.04265625 -41.91015625 24.72265625 C-42.57015625 24.72265625 -43.23015625 24.72265625 -43.91015625 24.72265625 C-47.56564903 31.33191775 -49.12152139 37.17818914 -47.91015625 44.72265625 C-45.29744141 52.74577173 -40.75375426 57.91846793 -33.53515625 62.09765625 C-26.34183799 63.81035107 -20.72878786 62.96918439 -14.21484375 59.41796875 C-9.39384501 55.87167476 -5.9574209 50.645895 -4.91015625 44.72265625 C-4.22678634 36.14110716 -5.26976645 29.89080359 -10.66015625 22.97265625 C-14.28766446 19.01618284 -17.91900833 17.06519093 -23.33203125 16.4453125 C-30.52555631 16.17283049 -36.46908216 17.71686808 -41.91015625 22.72265625 Z " fill="#090909" transform="translate(750.91015625,83.27734375)"/>
<path d="M0 0 C31.68 0 63.36 0 96 0 C96 8.25 96 16.5 96 25 C84.12 25 72.24 25 60 25 C60.00523682 27.78171631 60.01047363 30.56343262 60.01586914 33.42944336 C60.03240382 42.59766479 60.04347073 51.76588686 60.05181217 60.93411922 C60.05704134 66.49539411 60.06413958 72.05665379 60.07543945 77.61791992 C60.08626715 82.98007419 60.09227658 88.34221378 60.09487724 93.70437813 C60.09673171 95.75500278 60.10035272 97.8056266 60.10573006 99.85624504 C60.11293893 102.71790203 60.11399101 105.57949757 60.11352539 108.44116211 C60.11712067 109.29783478 60.12071594 110.15450745 60.12442017 111.03713989 C60.11405216 116.88594784 60.11405216 116.88594784 59 118 C57.37742456 118.0991657 55.75060169 118.13079777 54.125 118.1328125 C53.14015625 118.13410156 52.1553125 118.13539063 51.140625 118.13671875 C50.10421875 118.13285156 49.0678125 118.12898438 48 118.125 C46.44539063 118.13080078 46.44539063 118.13080078 44.859375 118.13671875 C43.87453125 118.13542969 42.8896875 118.13414062 41.875 118.1328125 C40.96492188 118.13168457 40.05484375 118.13055664 39.1171875 118.12939453 C37 118 37 118 36 117 C35.90477582 114.13908182 35.87446674 111.30236379 35.88647461 108.44116211 C35.88632858 107.54368759 35.88618256 106.64621307 35.8860321 105.72154236 C35.88673158 102.74011866 35.89452559 99.7587566 35.90234375 96.77734375 C35.90420781 94.71611058 35.90563177 92.65487696 35.90663147 90.59364319 C35.91045763 85.1569599 35.92028874 79.72030314 35.93133545 74.28363037 C35.94154747 68.74052286 35.94612864 63.19741108 35.95117188 57.65429688 C35.96191092 46.76951769 35.97950851 35.8847652 36 25 C24.12 25 12.24 25 0 25 C0 16.75 0 8.5 0 0 Z " fill="#030303" transform="translate(201,50)"/>
<path d="M0 0 C7.59 0 15.18 0 23 0 C23 11.55 23 23.1 23 35 C34.22 35 45.44 35 57 35 C57 42.92 57 50.84 57 59 C45.78 59 34.56 59 23 59 C23.0825 63.455 23.165 67.91 23.25 72.5 C23.27368652 74.58344727 23.27368652 74.58344727 23.29785156 76.70898438 C23.53396777 85.3234977 24.23170717 91.31388178 30.5078125 97.453125 C35.59265445 99.7054711 40.37315292 99.6741978 45.875 99.75 C49.54625 99.8325 53.2175 99.915 57 100 C57 107.92 57 115.84 57 124 C23.72972297 124.60860263 23.72972297 124.60860263 12.1015625 114.3203125 C3.7923227 105.57565402 -0.14508942 95.4174435 -0.09765625 83.51171875 C-0.0962413 82.80852005 -0.09482635 82.10532135 -0.09336853 81.3808136 C-0.08780109 79.14966456 -0.07525475 76.91861836 -0.0625 74.6875 C-0.05748079 73.16862125 -0.05291862 71.64974091 -0.04882812 70.13085938 C-0.03784236 66.42053988 -0.02060034 62.71027999 0 59 C-3.63 59 -7.26 59 -11 59 C-11 51.08 -11 43.16 -11 35 C-7.37 35 -3.74 35 0 35 C0 23.45 0 11.9 0 0 Z " fill="#090909" transform="translate(1029,44)"/>
<path d="M0 0 C6.75048828 -0.20996094 6.75048828 -0.20996094 8.99609375 1.6796875 C9.70958984 2.76636719 9.70958984 2.76636719 10.4375 3.875 C10.93121094 4.59429687 11.42492187 5.31359375 11.93359375 6.0546875 C13 8 13 8 13 10 C14.65 9.34 16.3 8.68 18 8 C18 7.34 18 6.68 18 6 C20.06049855 5.18243762 22.12348853 4.37115266 24.1875 3.5625 C25.33605469 3.11003906 26.48460937 2.65757813 27.66796875 2.19140625 C32.46356427 0.4766857 36.65292577 -0.12485066 41.73828125 -0.09765625 C42.70032471 -0.09515869 43.66236816 -0.09266113 44.65356445 -0.09008789 C46.46473755 -0.07643188 46.46473755 -0.07643188 48.3125 -0.0625 C52.169375 -0.041875 56.02625 -0.02125 60 0 C60 7.92 60 15.84 60 24 C48.4375 24.25 48.4375 24.25 44.83374023 24.29785156 C38.4135002 24.50323006 34.19724871 25.12210895 29 29 C28.67 29.66 28.34 30.32 28 31 C27.34 31 26.68 31 26 31 C25.21355443 34.49141319 24.85979703 37.7491749 24.81054688 41.32519531 C24.79382935 42.36266907 24.77711182 43.40014282 24.7598877 44.46905518 C24.74631226 45.57754822 24.73273682 46.68604126 24.71875 47.828125 C24.70034058 48.97287292 24.68193115 50.11762085 24.66296387 51.29705811 C24.58430408 56.19208482 24.51627615 61.0872443 24.44775391 65.98242188 C24.39620192 69.55606255 24.33891125 73.12957855 24.28125 76.703125 C24.26767456 77.81971497 24.25409912 78.93630493 24.2401123 80.08673096 C24.22339478 81.11159607 24.20667725 82.13646118 24.18945312 83.19238281 C24.17066101 84.55209198 24.17066101 84.55209198 24.15148926 85.93927002 C24 88 24 88 23 89 C21.37742456 89.0991657 19.75060169 89.13079777 18.125 89.1328125 C17.14015625 89.13410156 16.1553125 89.13539063 15.140625 89.13671875 C14.10421875 89.13285156 13.0678125 89.12898438 12 89.125 C10.44539063 89.13080078 10.44539063 89.13080078 8.859375 89.13671875 C7.87453125 89.13542969 6.8896875 89.13414062 5.875 89.1328125 C4.96492188 89.13168457 4.05484375 89.13055664 3.1171875 89.12939453 C1 89 1 89 0 88 C-0.09516211 85.2611158 -0.12554594 82.54752059 -0.11352539 79.80834961 C-0.11367142 78.94988937 -0.11381744 78.09142914 -0.1139679 77.20695496 C-0.11326847 74.35539262 -0.1054747 71.50389475 -0.09765625 68.65234375 C-0.09579218 66.68079158 -0.09436822 64.70923895 -0.09336853 62.73768616 C-0.08954251 57.53773733 -0.07971152 52.33781625 -0.06866455 47.13787842 C-0.05845222 41.83606339 -0.05387129 36.5342439 -0.04882812 31.23242188 C-0.03808933 20.82160237 -0.02101191 10.41080349 0 0 Z " fill="#090909" transform="translate(487,79)"/>
<path d="M0 0 C7.59 0 15.18 0 23 0 C23.02254717 16.01993851 23.04097926 32.03986354 23.05181217 48.0598135 C23.05697509 55.4976451 23.06401771 62.93546617 23.07543945 70.37329102 C23.08538641 76.85381342 23.09185346 83.33432819 23.09408849 89.81485802 C23.09539558 93.24830542 23.0984813 96.681731 23.10573006 100.11517143 C23.11374416 103.94193821 23.11399113 107.76868335 23.11352539 111.59545898 C23.11712067 112.74200455 23.12071594 113.88855011 23.12442017 115.06983948 C23.1230455 116.10615509 23.12167084 117.1424707 23.12025452 118.21018982 C23.12117631 119.11631232 23.1220981 120.02243483 23.12304783 120.95601559 C23 123 23 123 22 124 C14.74 124 7.48 124 0 124 C0 83.08 0 42.16 0 0 Z " fill="#020202" transform="translate(889,44)"/>
<path d="M0 0 C0 3 0 3 -1.75 5.04296875 C-2.4925 5.75066406 -3.235 6.45835938 -4 7.1875 C-4.7425 7.90292969 -5.485 8.61835937 -6.25 9.35546875 C-7.11625 10.16951172 -7.11625 10.16951172 -8 11 C-8.66 10.67 -9.32 10.34 -10 10 C-8.90033225 8.70450101 -7.79508199 7.41373929 -6.6875 6.125 C-6.07261719 5.40570313 -5.45773437 4.68640625 -4.82421875 3.9453125 C-3 2 -3 2 0 0 Z " fill="#464646" transform="translate(413,84)"/>
</svg>
